<svg width="132" height="28" viewBox="0 0 132 28" fill="none" xmlns="http://www.w3.org/2000/svg">
<path d="M26.1022 5.74022C25.6005 5.74022 25.1269 5.87268 24.7215 6.10949L24.3964 6.33025L18.2353 10.4885L18.5563 9.29642L18.5844 9.18403C18.6366 8.9713 18.6647 8.74653 18.6647 8.51775C18.6647 7.15708 17.7054 6.00111 16.3608 5.78036C15.7266 5.676 15.1166 5.78839 14.6068 6.05731L14.093 6.40249L8.0403 10.4845L7.06094 11.1468L8.35337 9.30846L9.07986 6.59515C9.12401 6.42657 8.99557 6.258 8.82298 6.258H4.2794C4.15899 6.258 4.05062 6.33827 4.02252 6.45467L0.00876093 21.438C-0.0353904 21.6066 0.0930497 21.7752 0.265641 21.7752H4.80922C4.92963 21.7752 5.03801 21.6949 5.0661 21.5785L6.68765 15.594L12.905 11.3515L10.2037 21.438C10.1596 21.6066 10.288 21.7752 10.4606 21.7752H15.0042C15.1246 21.7752 15.233 21.6949 15.2611 21.5785L16.8746 15.5499L23.128 11.2471L20.3987 21.438C20.3545 21.6066 20.483 21.7752 20.6555 21.7752H25.1991C25.3195 21.7752 25.4279 21.6949 25.456 21.5785L28.6791 9.5533L28.8516 8.90708C28.8717 8.77864 28.8797 8.64618 28.8797 8.51373C28.8797 6.98047 27.6355 5.73621 26.1022 5.73621V5.74022Z" fill="white"/>
<path d="M131.198 15.4129H126.574C126.486 15.4129 126.406 15.457 126.354 15.5293C125.611 16.5608 124.363 17.2552 123.018 17.2552C122.601 17.2552 122.203 17.187 121.842 17.0625L127.06 13.5425L131.387 10.6245C131.487 10.5562 131.531 10.4238 131.487 10.3114C131.094 9.28388 130.472 8.37276 129.669 7.63422C128.296 6.36587 126.402 5.59924 124.242 5.59924C119.526 5.59924 115.324 9.25177 114.85 13.7592C114.377 18.2667 117.816 21.9192 122.533 21.9192C126.522 21.9192 130.143 19.3062 131.451 15.7741C131.515 15.5975 131.387 15.4129 131.198 15.4129ZM119.719 14.3452L119.045 14.7988L119.747 13.6187C119.948 11.6881 121.734 10.2632 123.753 10.2632C124.311 10.2632 124.824 10.3836 125.278 10.5964L120.056 14.1164L119.719 14.3412V14.3452Z" fill="white"/>
<path d="M77.9962 6.31766C77.37 6.31766 76.7358 6.41399 76.1177 6.59461L75.612 6.75917L73.573 7.42546L72.5254 7.85091L73.6452 6.72305C73.7496 6.61869 73.8219 6.49025 73.862 6.34977L73.8941 6.22534L75.4715 0.337154C75.5157 0.168576 75.3872 0 75.2146 0H70.671C70.5506 0 70.4423 0.0802713 70.4142 0.19667L64.7307 21.4054C64.6865 21.574 64.815 21.7425 64.9876 21.7425H69.5311C69.6516 21.7425 69.7559 21.6623 69.788 21.5459L70.9761 17.1066C70.9761 17.1066 71.9514 13.4581 72.0036 13.2655C72.0277 13.1772 72.108 12.8802 72.1802 12.6072C72.2525 12.3343 72.3207 12.0814 72.3207 12.0814C72.9308 11.4191 73.7215 10.9455 74.5925 10.7328C74.8574 10.6686 75.1063 10.6204 75.2869 10.6204C76.0334 10.6204 76.6194 10.9375 76.9566 11.4432C77.1653 11.7563 77.2095 11.9891 77.2416 12.4186C77.2576 12.6714 77.085 13.2936 76.9084 13.9639L75.6642 18.6118L74.9176 21.4054C74.8735 21.574 75.0019 21.7425 75.1785 21.7425H79.7221C79.8425 21.7425 79.9509 21.6623 79.979 21.5459L82.3953 12.5069C83.3264 9.08314 81.3517 6.31364 77.9881 6.31364L77.9962 6.31766Z" fill="white"/>
<path d="M115.998 6.55013C115.549 6.4257 115.063 6.35747 114.545 6.35747C113.915 6.35747 113.285 6.4538 112.667 6.63442H112.659L112.169 6.79497L110.126 7.46526L109.079 7.89474L110.359 6.60632C110.403 6.43774 110.275 6.26917 110.102 6.26917H105.559C105.438 6.26917 105.33 6.34944 105.302 6.46584L101.288 21.4492C101.244 21.6178 101.368 21.7864 101.545 21.7864H106.088C106.209 21.7864 106.317 21.7061 106.345 21.5897L107.533 17.1505L108.412 13.8793C108.473 13.6465 108.509 13.514 108.561 13.3254C108.613 13.1488 108.653 12.9962 108.701 12.8036C108.77 12.5467 108.802 12.4142 108.882 12.1252C109.36 11.5513 109.994 11.1218 110.704 10.893L110.961 10.8127C111.254 10.7204 111.551 10.6682 111.852 10.6682C112.535 10.6682 113.08 10.9332 113.43 11.3666C113.474 11.4228 113.566 11.4108 113.602 11.3466L116.071 6.70666C116.103 6.64646 116.071 6.57421 116.006 6.55414L115.998 6.55013Z" fill="white"/>
<path d="M54.1022 16.1515C52.9141 14.5179 53.0185 12.4789 54.6159 11.3792C55.214 10.9658 55.9164 10.757 56.6309 10.737C56.7633 10.737 56.8998 10.737 57.0322 10.745H57.0362L64.9514 10.9015L61.0179 6.31381L57.4015 6.2255H57.3975L56.2777 6.19741C56.0328 6.1934 55.788 6.19339 55.5431 6.21346C54.0821 6.34993 52.6653 6.82757 51.4411 7.67447C51.421 7.68651 51.4009 7.70257 51.3849 7.71461C48.792 9.53686 49.0569 13.4784 51.8184 15.0357L54.351 16.4646C54.2387 16.3322 54.2226 16.3201 54.1062 16.1596L54.1022 16.1515Z" fill="white"/>
<path d="M57.0122 11.5431C58.6458 13.1285 58.5535 15.4886 56.8316 16.6767C56.3339 17.0219 55.7599 17.2226 55.1659 17.2948C54.897 17.3269 54.9933 17.3149 53.7249 17.2868C53.1269 17.2747 52.2238 17.2587 50.835 17.2386L46.4761 17.1303L50.4096 21.718L53.7771 21.8023C56.4703 21.8665 58.1923 21.6337 60.0065 20.3814C60.0426 20.3573 60.0787 20.3332 60.1108 20.3051C62.6997 18.4548 62.4348 14.5213 59.6533 12.972L57.0283 11.511C56.9881 11.5672 57.0483 11.4789 57.0122 11.5391V11.5431Z" fill="white"/>
<path d="M103.162 6.36149L98.3539 6.3936C98.2937 6.3936 98.2375 6.42973 98.2134 6.48592L97.9285 7.13615C96.6922 6.3334 95.171 5.8678 93.4892 5.8678C88.7731 5.8678 84.5667 9.52032 84.097 14.0278C83.6234 18.5352 86.1481 22.1878 90.8642 22.1878C92.0764 22.1878 93.1601 21.9469 94.1154 21.5094L94.0752 21.6579C94.0512 21.7543 94.1234 21.8506 94.2238 21.8506H99.0082C99.0764 21.8506 99.1366 21.8064 99.1567 21.7382L103.315 6.55415C103.343 6.45782 103.267 6.36149 103.166 6.36149H103.162ZM95.6486 15.7376C94.9623 16.8374 93.6418 17.5238 92.2731 17.5238C91.8556 17.5238 91.4583 17.4555 91.097 17.3311C91.097 17.3311 89.2989 16.6528 89.03 14.5777C88.9738 13.8712 89.1223 13.1568 89.4835 12.5467C90.1899 11.3546 91.5426 10.5318 93.0076 10.5318C93.3769 10.5318 93.7301 10.584 94.0552 10.6803C95.3316 11.0054 96.2025 11.9808 96.2748 13.2009C96.339 14.2606 96.1183 14.9871 95.6486 15.7376Z" fill="white"/>
<path d="M46.5201 6.2689H41.9765C41.8561 6.2689 41.7478 6.34918 41.7197 6.46558L40.5316 10.9008C40.5316 10.9008 39.5562 14.5493 39.5041 14.7379C39.4559 14.9186 39.187 15.926 39.187 15.926L40.4393 16.1709C40.0098 16.3113 38.9943 16.6405 38.9943 16.6405C38.9943 16.6405 36.7587 17.383 36.2168 17.383C35.4702 17.383 34.8842 17.0659 34.5471 16.5602C34.3343 16.2431 34.2942 16.0183 34.2621 15.5848C34.242 15.332 34.4146 14.7098 34.5952 14.0395L35.8395 9.39161L36.5861 6.60205C36.6302 6.43347 36.5018 6.26489 36.3292 6.26489H31.7856C31.6652 6.26489 31.5568 6.34516 31.5287 6.46156L29.1164 15.4925C28.1853 18.9123 30.16 21.6858 33.5236 21.6858C34.1497 21.6858 34.7839 21.5894 35.402 21.4088L35.9037 21.2442L37.9427 20.578L37.6216 21.7741L36.0442 27.6622C36.0001 27.8308 36.1285 27.9994 36.3011 27.9994H40.8447C40.9651 27.9994 41.0734 27.9191 41.1015 27.8027L46.781 6.60205C46.8252 6.43347 46.6967 6.26489 46.5241 6.26489L46.5201 6.2689Z" fill="white"/>
</svg>
